# xmcd
#
# Track frame offsets:
#	150
#	15531
#	34172
#	56702
#	82684
#	102017
#	123650
#	140164
#	162814
#	187593
#	207265
#	221900
#	238488
#	259668
#	277245
#	297677
#
# Disc length: 4260
#
# Revision: 5
# Processed by: cddbd v1.5.1PL0 Copyright (c) Steve Scherf et al.
# Submitted via: CDex 1.50beta10
# Normalized: r4:DSETVAR2,TDELIM( - )
#
DISCID=f510a210
DTITLE=Various Artist - Ritmo Latino Salsa
DYEAR=2002
DGENRE=Salsa
TTITLE0=King Africa - La Bomba
TTITLE1=Marcela Morelo - No Vale La Pena
TTITLE2=Willy Chirino - Gitanilla
TTITLE3=Manolito Y Su Trabuco - Marcando La Distancia
TTITLE4=DLG - Magdalena, Mi Amor (Quimbara)
TTITLE5=George Lamond - Jurare Quererte
TTITLE6=Celia Cruz - La Vida Es Un Carnaval
TTITLE7=DLG - Juliana
TTITLE8=Proyecto Uno - Latinos
TTITLE9=Los Hermanos Rosario - La Duena Del Swing
TTITLE10=Rafaga - Mentirosa
TTITLE11=Manny Manuel - Ninia Bonita
TTITLE12=Steve B. - Porque Te Amo (Because I Love You)
TTITLE13=SBS - La Vuelta
TTITLE14=Elvis Crespo - Suavemente
TTITLE15=Los Van Van - Temba, Tumba Y Timba
EXTD=YEAR: 2002
EXTT0=
EXTT1=
EXTT2=
EXTT3=
EXTT4=
EXTT5=
EXTT6=
EXTT7=
EXTT8=
EXTT9=
EXTT10=
EXTT11=
EXTT12=
EXTT13=
EXTT14=
EXTT15=
PLAYORDER=
